# xmcd
#
# Track frame offsets:
#	150
#	11804
#	29398
#	43000
#	59233
#	73281
#	86832
#	98953
#	110885
#	121028
#	132303
#	144708
#	156982
#
# Disc length: 2289 seconds
#
# Revision: 0
# Processed by: cddbd v1.5.2PL0 Copyright (c) Steve Scherf et al.
# Submitted via: audiograbber 1.83.01
#
DISCID=ca08ef0d
DTITLE=Jade Jack - Off the Record
DYEAR=1900
DGENRE=
TTITLE0=I Can't Help It (If He Can't Stop Loving Me)
TTITLE1=I Can Bring Him Back
TTITLE2=Institute of Honky-Tonks
TTITLE3=I Had a Husband
TTITLE4=The Grand Tour
TTITLE5=I'm Dynamite
TTITLE6=Once You've Had The Best
TTITLE7=No Reason to Quit
TTITLE8=Go Away
TTITLE9=A Woman's Man
TTITLE10=Swamp Rabbit
TTITLE11=Tijuana Grass
TTITLE12=I'd Be Better Off (In a Pine Box)
EXTD=
EXTT0=
EXTT1=
EXTT2=
EXTT3=
EXTT4=
EXTT5=
EXTT6=
EXTT7=
EXTT8=
EXTT9=
EXTT10=
EXTT11=
EXTT12=
PLAYORDER=
